<?xml version="1.0" encoding="UTF-8" standalone="no"?>
<!-- Uploaded to: SVG Repo, www.svgrepo.com, Generator: SVG Repo Mixer Tools -->

<svg
   width="800px"
   height="800px"
   viewBox="0 0 512 512"
   version="1.1"
   id="svg1"
   sodipodi:docname="thunder-skull-white.svg"
   inkscape:version="1.4.2 (ebf0e94, 2025-05-08)"
   xmlns:inkscape="http://www.inkscape.org/namespaces/inkscape"
   xmlns:sodipodi="http://sodipodi.sourceforge.net/DTD/sodipodi-0.dtd"
   xmlns="http://www.w3.org/2000/svg"
   xmlns:svg="http://www.w3.org/2000/svg">
  <path
     id="path3"
     style="fill:#ffffff;fill-opacity:1"
     d="m 268.344,95.97 c -70.046,1.018 -124.938,47.628 -124.938,102.155 0,25.662 12.01,49.232 32.188,67.438 l 2.937,2.625 0.126,3.937 2.375,61.5 c 4.54,2.58 14.774,7.882 29.75,12.625 v -40.72 h 18.69 v 45.626 c 10.157,2.127 21.678,3.707 34.405,4.188 v -42.156 h 18.688 v 42.03 c 13.336,-0.665 25.14,-2.53 35.312,-4.937 v -44.75 h 18.688 v 39.25 c 11.83,-4.243 19.824,-8.66 23.656,-10.967 l 1.78,-60.938 0.125,-4.03 3,-2.69 c 20.67,-18.317 32.78,-41.973 32.78,-67.936 0,-55.138 -56.05,-102.25 -127.25,-102.25 h -2.31 z m -77.344,89 c 23.367,-0.295 58.375,18.53 58.375,18.53 0,21.772 -17.665,39.438 -39.438,39.438 -21.79,0 -39.406,-17.666 -39.406,-39.438 0.418,-13.68 9.058,-18.388 20.47,-18.53 z m 159.375,0 c 11.412,0.142 20.052,4.85 20.47,18.53 0,21.772 -17.635,39.438 -39.408,39.438 -21.772,0 -39.437,-17.666 -39.437,-39.438 0,0 35.008,-18.825 58.375,-18.53 z m -79.75,48.25 20.344,45.405 h -40.69 l 20.345,-45.406 z"
     inkscape:label="caveira" />
  <defs
     id="defs1" />
  <sodipodi:namedview
     id="namedview1"
     pagecolor="#ffffff"
     bordercolor="#000000"
     borderopacity="0.25"
     inkscape:showpageshadow="2"
     inkscape:pageopacity="0.0"
     inkscape:pagecheckerboard="0"
     inkscape:deskcolor="#d1d1d1"
     inkscape:zoom="0.71329397"
     inkscape:cx="339.27106"
     inkscape:cy="437.40732"
     inkscape:window-width="1920"
     inkscape:window-height="987"
     inkscape:window-x="1920"
     inkscape:window-y="56"
     inkscape:window-maximized="0"
     inkscape:current-layer="svg1" />
  <g
     id="g8"
     inkscape:label="raios"
     style="fill:#ffffff;fill-opacity:1">
    <path
       style="fill:#ffff14;fill-opacity:1"
       d="m 97.594,333.126 -77.72,160.063 88.595,-94.782 35.75,51.28 67.56,-83.873 c -28.16,-7.978 -44.936,-18.782 -44.936,-18.782 l -4.094,-2.624 -0.188,-4.844 -0.218,-6.03 -29,33.75 -35.75,-34.157 z"
       id="path8" />
    <path
       style="fill:#ffff14;fill-opacity:1"
       d="m 379.438,315.53 -0.688,23.94 -0.125,4.717 -3.906,2.688 c 0,0 -11.47,7.87 -31.814,15.156 l 24.406,20.94 -34.218,35.75 160.125,77.717 -94.814,-88.593 51.28,-35.75 -70.248,-56.563 z"
       id="path7" />
    <path
       style="fill:#ffff14;fill-opacity:1"
       d="M 496.188,23.063 438.53,84.156 410.75,44.25 360.312,102.97 c 14.366,9.26 26.63,20.68 36,33.75 L 419.187,108.313 447,134.905 496.188,23.061 Z"
       id="path2" />
    <path
       style="fill:#ffff14;fill-opacity:1"
       d="M 23.094,20.125 84.156,77.78 44.28,105.563 127,176.594 c 3.655,-16.908 11.556,-32.517 22.688,-46.125 L 108.313,97.124 134.906,69.311 23.094,20.126 Z"
       id="path1" />
  </g>
</svg>
